<svg width="49" height="48" viewBox="0 0 49 48" fill="none" xmlns="http://www.w3.org/2000/svg">
<path d="M41.464 6.984C36.9535 2.472 30.9474 0 24.5555 0C11.3856 0 0.65195 10.68 0.65195 23.784C0.65195 27.984 1.7615 32.064 3.83587 35.664L0.458984 48L13.1223 44.688C16.6198 46.584 20.5514 47.592 24.5555 47.592C37.7253 47.592 48.459 36.912 48.459 23.808C48.459 17.448 45.9746 11.472 41.464 6.984ZM24.5555 43.56C20.9856 43.56 17.4881 42.6 14.4248 40.8L13.7012 40.368L6.17557 42.336L8.17758 35.04L7.69517 34.296C5.71728 31.152 4.65597 27.504 4.65597 23.784C4.65597 12.888 13.5806 4.008 24.5313 4.008C29.8379 4.008 34.8308 6.072 38.5695 9.816C42.3323 13.56 44.3826 18.528 44.3826 23.808C44.4308 34.704 35.5062 43.56 24.5555 43.56ZM35.458 28.776C34.855 28.488 31.9122 27.048 31.3816 26.832C30.8268 26.64 30.4409 26.544 30.0308 27.12C29.6208 27.72 28.4871 29.064 28.1494 29.448C27.8117 29.856 27.4499 29.904 26.8469 29.592C26.2439 29.304 24.3143 28.656 22.0469 26.64C20.262 25.056 19.0801 23.112 18.7183 22.512C18.3806 21.912 18.67 21.6 18.9836 21.288C19.2489 21.024 19.5866 20.592 19.8761 20.256C20.1655 19.92 20.2861 19.656 20.4791 19.272C20.672 18.864 20.5756 18.528 20.4308 18.24C20.2861 17.952 19.0801 15.024 18.5977 13.824C18.1153 12.672 17.6087 12.816 17.2469 12.792C16.8851 12.792 16.4992 12.792 16.0891 12.792C15.6791 12.792 15.0519 12.936 14.4972 13.536C13.9665 14.136 12.4228 15.576 12.4228 18.504C12.4228 21.432 14.5695 24.264 14.859 24.648C15.1484 25.056 19.0801 31.056 25.062 33.624C26.4851 34.248 27.5947 34.608 28.463 34.872C29.8861 35.328 31.1886 35.256 32.2258 35.112C33.3836 34.944 35.7715 33.672 36.254 32.28C36.7605 30.888 36.7605 29.712 36.5916 29.448C36.4228 29.184 36.061 29.064 35.458 28.776Z" fill="black"/>
</svg>
